<?xml version="1.0" encoding="utf-8"?>
<!-- Generator: Adobe Illustrator 22.0.1, SVG Export Plug-In . SVG Version: 6.00 Build 0)  -->
<svg version="1.1" id="Layer_1" xmlns="http://www.w3.org/2000/svg" xmlns:xlink="http://www.w3.org/1999/xlink" x="0px" y="0px"
	 viewBox="0 0 339 96" style="enable-background:new 0 0 339 96;" xml:space="preserve">
<g>
	<path d="M19.1,16.6h23v7.3H27.7v20.3h12.7v7.3H27.7v21.9h14.3v7.3h-23V16.6z"/>
	<path d="M51.7,16.6h8.5L64,40.3l0.7,4.3l1.4,9.3c0.2,1.6,0.4,3,0.6,4.3c0.2,1.3,0.3,2.5,0.5,3.5l0.4,3.2c0.1-0.6,0.2-1.2,0.2-1.7
		c0.1-0.5,0.1-0.9,0.2-1.2l1.1-7.4l1.5-9.8c0.1-0.9,0.3-1.7,0.4-2.4c0.1-0.7,0.2-1.4,0.4-2l4.2-23.7h8.1L70.9,80.7H64L51.7,16.6z"/>
	<path d="M102.6,16.6h6.7l13.7,64.1h-8.5l-2.4-12.5H99.4l-2.4,12.5h-8.3L102.6,16.6z M110.9,61.5l-1.9-10.2
		c-1.3-6.9-2.3-14.4-3.1-22.2c-0.4,3.8-0.9,7.7-1.5,11.7c-0.6,3.9-1.3,8.1-2.2,12.6l-1.6,8.2H110.9z"/>
	<path d="M156.3,18v8.4c-2.6-1.9-5-2.8-7.1-2.8c-2.3,0-4.1,0.8-5.6,2.4c-1.4,1.5-2.2,3.6-2.2,6.1c0,2.2,0.5,4.2,1.5,5.8
		c0.5,0.9,1.4,2,2.6,3.3c1.2,1.4,2.8,3,4.7,4.9c3.5,3.6,5.9,6.7,7.2,9.3c1.3,2.5,1.9,5.6,1.9,9.3c0,5-1.4,9-4.2,12.2
		c-2.8,3.1-6.4,4.7-10.7,4.7c-3.7,0-6.8-1-9.4-3v-8.5c3.1,2.2,5.9,3.4,8.4,3.4c2.4,0,4.2-0.8,5.5-2.3c1.3-1.6,2-3.7,2-6.4
		c0-2.3-0.5-4.4-1.5-6.3c-0.5-0.9-1.3-1.9-2.2-3.1c-0.9-1.1-2.1-2.4-3.5-3.8c-2.2-2.2-4-4.1-5.4-5.7c-1.4-1.7-2.5-3.1-3.2-4.4
		c-1.3-2.4-2-5.5-2-9.2c0-5,1.3-9,3.9-11.9c2.6-3,6.2-4.4,10.6-4.4C150.6,15.8,153.5,16.5,156.3,18z"/>
	<path d="M198.6,17.7v7.8c-2.2-1.1-4.1-1.6-5.6-1.6c-2,0-3.8,0.5-5.3,1.5c-1.5,1-2.7,2.6-3.6,4.7c-1,2.1-1.7,4.8-2.1,8
		c-0.5,3.2-0.7,7-0.7,11.4c0,15.8,4.1,23.7,12.2,23.7c1.4,0,3.1-0.4,5.1-1.3v7.9c-2.1,1.2-4.4,1.7-7,1.7c-13,0-19.5-10.6-19.5-31.8
		c0-11.5,1.6-20,4.8-25.6c3.2-5.6,8-8.4,14.5-8.4C193.8,15.8,196.2,16.4,198.6,17.7z"/>
	<path d="M224.1,16.6h6.7l13.7,64.1H236l-2.4-12.5h-12.7l-2.4,12.5h-8.3L224.1,16.6z M232.4,61.5l-1.9-10.2
		c-1.3-6.9-2.3-14.4-3.1-22.2c-0.4,3.8-0.9,7.7-1.5,11.7c-0.6,3.9-1.3,8.1-2.2,12.6l-1.6,8.2H232.4z"/>
	<path d="M256.5,16.6h11.4c5.5,0,9.5,1.4,12,4.2c2.5,2.8,3.7,7.2,3.7,13.3c0,8.5-2.5,14-7.5,16.5c-2.5,1.1-6.2,1.7-10.9,1.7v28.4
		h-8.6V16.6z M265.1,44.9c3.6,0,6-0.7,7.4-2.2c1.4-1.5,2.1-4.1,2.1-7.8c0-3.8-0.7-6.6-2-8.4c-1.3-1.8-3.4-2.7-6.3-2.7h-1.2V44.9z"/>
	<path d="M297,16.6h23v7.3h-14.3v20.3h12.7v7.3h-12.7v21.9h14.3v7.3h-23V16.6z"/>
</g>
</svg>
